<?xml version="1.0" standalone="no"?>
<svg xmlns:xlink="http://www.w3.org/1999/xlink" id="wave" style="transform:rotate(0deg); transition: 0.3s" viewBox="0 0 1440 490" version="1.1" xmlns="http://www.w3.org/2000/svg"><defs><linearGradient id="sw-gradient-0" x1="0" x2="0" y1="1" y2="0"><stop stop-color="rgba(62, 233.802, 243, 1)" offset="0%"/><stop stop-color="rgba(11, 11.138, 255, 1)" offset="100%"/></linearGradient></defs><path style="transform:translate(0, 0px); opacity:1" fill="url(#sw-gradient-0)" d="M0,49L40,81.7C80,114,160,180,240,179.7C320,180,400,114,480,73.5C560,33,640,16,720,49C800,82,880,163,960,212.3C1040,261,1120,278,1200,261.3C1280,245,1360,196,1440,204.2C1520,212,1600,278,1680,285.8C1760,294,1840,245,1920,261.3C2000,278,2080,359,2160,367.5C2240,376,2320,310,2400,285.8C2480,261,2560,278,2640,245C2720,212,2800,131,2880,81.7C2960,33,3040,16,3120,32.7C3200,49,3280,98,3360,106.2C3440,114,3520,82,3600,57.2C3680,33,3760,16,3840,81.7C3920,147,4000,294,4080,334.8C4160,376,4240,310,4320,261.3C4400,212,4480,180,4560,204.2C4640,229,4720,310,4800,343C4880,376,4960,359,5040,367.5C5120,376,5200,408,5280,375.7C5360,343,5440,245,5520,196C5600,147,5680,147,5720,147L5760,147L5760,490L5720,490C5680,490,5600,490,5520,490C5440,490,5360,490,5280,490C5200,490,5120,490,5040,490C4960,490,4880,490,4800,490C4720,490,4640,490,4560,490C4480,490,4400,490,4320,490C4240,490,4160,490,4080,490C4000,490,3920,490,3840,490C3760,490,3680,490,3600,490C3520,490,3440,490,3360,490C3280,490,3200,490,3120,490C3040,490,2960,490,2880,490C2800,490,2720,490,2640,490C2560,490,2480,490,2400,490C2320,490,2240,490,2160,490C2080,490,2000,490,1920,490C1840,490,1760,490,1680,490C1600,490,1520,490,1440,490C1360,490,1280,490,1200,490C1120,490,1040,490,960,490C880,490,800,490,720,490C640,490,560,490,480,490C400,490,320,490,240,490C160,490,80,490,40,490L0,490Z"/><defs><linearGradient id="sw-gradient-1" x1="0" x2="0" y1="1" y2="0"><stop stop-color="rgba(0, 86.535, 255, 1)" offset="0%"/><stop stop-color="rgba(215.836, 0, 255, 1)" offset="100%"/></linearGradient></defs><path style="transform:translate(0, 50px); opacity:0.9" fill="url(#sw-gradient-1)" d="M0,0L40,65.3C80,131,160,261,240,294C320,327,400,261,480,204.2C560,147,640,98,720,122.5C800,147,880,245,960,277.7C1040,310,1120,278,1200,285.8C1280,294,1360,343,1440,351.2C1520,359,1600,327,1680,302.2C1760,278,1840,261,1920,261.3C2000,261,2080,278,2160,245C2240,212,2320,131,2400,114.3C2480,98,2560,147,2640,179.7C2720,212,2800,229,2880,204.2C2960,180,3040,114,3120,114.3C3200,114,3280,180,3360,179.7C3440,180,3520,114,3600,122.5C3680,131,3760,212,3840,204.2C3920,196,4000,98,4080,73.5C4160,49,4240,98,4320,138.8C4400,180,4480,212,4560,261.3C4640,310,4720,376,4800,408.3C4880,441,4960,441,5040,375.7C5120,310,5200,180,5280,171.5C5360,163,5440,278,5520,277.7C5600,278,5680,163,5720,106.2L5760,49L5760,490L5720,490C5680,490,5600,490,5520,490C5440,490,5360,490,5280,490C5200,490,5120,490,5040,490C4960,490,4880,490,4800,490C4720,490,4640,490,4560,490C4480,490,4400,490,4320,490C4240,490,4160,490,4080,490C4000,490,3920,490,3840,490C3760,490,3680,490,3600,490C3520,490,3440,490,3360,490C3280,490,3200,490,3120,490C3040,490,2960,490,2880,490C2800,490,2720,490,2640,490C2560,490,2480,490,2400,490C2320,490,2240,490,2160,490C2080,490,2000,490,1920,490C1840,490,1760,490,1680,490C1600,490,1520,490,1440,490C1360,490,1280,490,1200,490C1120,490,1040,490,960,490C880,490,800,490,720,490C640,490,560,490,480,490C400,490,320,490,240,490C160,490,80,490,40,490L0,490Z"/></svg>