<?xml version="1.0" standalone="no"?>
<svg xmlns:xlink="http://www.w3.org/1999/xlink" id="wave" style="transform:rotate(180deg); transition: 0.3s" viewBox="0 0 1440 490" version="1.1" xmlns="http://www.w3.org/2000/svg"><defs><linearGradient id="sw-gradient-0" x1="0" x2="0" y1="1" y2="0"><stop stop-color="rgba(62, 233.802, 243, 0.63)" offset="0%"/><stop stop-color="rgba(11, 11.138, 255, 0)" offset="100%"/></linearGradient></defs><path style="transform:translate(0, 0px); opacity:1" fill="url(#sw-gradient-0)" d="M0,392L48,367.5C96,343,192,294,288,294C384,294,480,343,576,375.7C672,408,768,425,864,416.5C960,408,1056,376,1152,318.5C1248,261,1344,180,1440,171.5C1536,163,1632,229,1728,228.7C1824,229,1920,163,2016,138.8C2112,114,2208,131,2304,155.2C2400,180,2496,212,2592,196C2688,180,2784,114,2880,122.5C2976,131,3072,212,3168,212.3C3264,212,3360,131,3456,147C3552,163,3648,278,3744,326.7C3840,376,3936,359,4032,334.8C4128,310,4224,278,4320,245C4416,212,4512,180,4608,196C4704,212,4800,278,4896,277.7C4992,278,5088,212,5184,187.8C5280,163,5376,180,5472,155.2C5568,131,5664,65,5760,73.5C5856,82,5952,163,6048,163.3C6144,163,6240,82,6336,57.2C6432,33,6528,65,6624,138.8C6720,212,6816,327,6864,383.8L6912,441L6912,490L6864,490C6816,490,6720,490,6624,490C6528,490,6432,490,6336,490C6240,490,6144,490,6048,490C5952,490,5856,490,5760,490C5664,490,5568,490,5472,490C5376,490,5280,490,5184,490C5088,490,4992,490,4896,490C4800,490,4704,490,4608,490C4512,490,4416,490,4320,490C4224,490,4128,490,4032,490C3936,490,3840,490,3744,490C3648,490,3552,490,3456,490C3360,490,3264,490,3168,490C3072,490,2976,490,2880,490C2784,490,2688,490,2592,490C2496,490,2400,490,2304,490C2208,490,2112,490,2016,490C1920,490,1824,490,1728,490C1632,490,1536,490,1440,490C1344,490,1248,490,1152,490C1056,490,960,490,864,490C768,490,672,490,576,490C480,490,384,490,288,490C192,490,96,490,48,490L0,490Z"/><defs><linearGradient id="sw-gradient-1" x1="0" x2="0" y1="1" y2="0"><stop stop-color="rgba(0, 86.535, 255, 0.25)" offset="0%"/><stop stop-color="rgba(215.836, 0, 255, 0.67)" offset="100%"/></linearGradient></defs><path style="transform:translate(0, 50px); opacity:0.9" fill="url(#sw-gradient-1)" d="M0,0L48,57.2C96,114,192,229,288,294C384,359,480,376,576,334.8C672,294,768,196,864,187.8C960,180,1056,261,1152,269.5C1248,278,1344,212,1440,163.3C1536,114,1632,82,1728,98C1824,114,1920,180,2016,245C2112,310,2208,376,2304,343C2400,310,2496,180,2592,147C2688,114,2784,180,2880,204.2C2976,229,3072,212,3168,245C3264,278,3360,359,3456,367.5C3552,376,3648,310,3744,253.2C3840,196,3936,147,4032,138.8C4128,131,4224,163,4320,163.3C4416,163,4512,131,4608,98C4704,65,4800,33,4896,16.3C4992,0,5088,0,5184,16.3C5280,33,5376,65,5472,130.7C5568,196,5664,294,5760,277.7C5856,261,5952,131,6048,122.5C6144,114,6240,229,6336,228.7C6432,229,6528,114,6624,98C6720,82,6816,163,6864,204.2L6912,245L6912,490L6864,490C6816,490,6720,490,6624,490C6528,490,6432,490,6336,490C6240,490,6144,490,6048,490C5952,490,5856,490,5760,490C5664,490,5568,490,5472,490C5376,490,5280,490,5184,490C5088,490,4992,490,4896,490C4800,490,4704,490,4608,490C4512,490,4416,490,4320,490C4224,490,4128,490,4032,490C3936,490,3840,490,3744,490C3648,490,3552,490,3456,490C3360,490,3264,490,3168,490C3072,490,2976,490,2880,490C2784,490,2688,490,2592,490C2496,490,2400,490,2304,490C2208,490,2112,490,2016,490C1920,490,1824,490,1728,490C1632,490,1536,490,1440,490C1344,490,1248,490,1152,490C1056,490,960,490,864,490C768,490,672,490,576,490C480,490,384,490,288,490C192,490,96,490,48,490L0,490Z"/></svg>